<svg width="24" height="24" viewBox="0 0 24 24" xmlns="http://www.w3.org/2000/svg">
  <path d="M9.6113 14.0333L2.87688 10.1458C2.57466 9.97057 2.24488 9.88788 1.91904 9.88788C1.25652 9.88788 0.611727 10.2324 0.257335 10.8477C-0.272283 11.7642 0.0417475 12.9376 0.959228 13.4672L7.69365 17.3547C7.99488 17.529 8.32466 17.6126 8.65051 17.6126C9.31302 17.6126 9.95781 17.2681 10.3132 16.6528C10.8418 15.7363 10.5278 14.5629 9.6113 14.0333Z" />
  <path d="M23.0408 10.1458L16.3064 6.2573C16.0042 6.08306 15.6744 6.00037 15.3495 6.00037C14.686 6.00037 14.0422 6.34393 13.6868 6.95919C13.1572 7.87667 13.4713 9.04912 14.3887 9.57873L21.1231 13.4672C21.4254 13.6414 21.7551 13.7241 22.08 13.7241C22.7425 13.7241 23.3873 13.3806 23.7427 12.7653C24.2723 11.8478 23.9583 10.6754 23.0408 10.1458Z" />
  <path d="M20.8564 13.9288L17.7131 12.1135L14.3887 14.0331C13.4713 14.5628 13.1572 15.7362 13.6868 16.6527C14.0422 17.268 14.686 17.6125 15.3495 17.6125C15.6744 17.6125 16.0042 17.5288 16.3064 17.3546L21.7197 14.229C21.4175 14.1838 21.1241 14.0834 20.8564 13.9288Z" />
  <path d="M3.14275 9.68311L6.286 11.4984L9.61137 9.57877C10.5279 9.04915 10.8419 7.87671 10.3133 6.95923C9.78365 6.04175 8.61022 5.72772 7.69373 6.25733L2.2804 9.38287C2.58261 9.42815 2.87597 9.52954 3.14275 9.68311Z" />
</svg>
