<svg width="32" height="32" viewBox="0 0 32 32" xmlns="http://www.w3.org/2000/svg">
<path d="M12.8151 18.711L3.83584 13.5277C3.43288 13.2941 2.99317 13.1838 2.55872 13.1838C1.67536 13.1838 0.815635 13.6432 0.343113 14.4636C-0.363044 15.6856 0.0556633 17.2501 1.27897 17.9563L10.2582 23.1396C10.6598 23.3719 11.0995 23.4835 11.534 23.4835C12.4174 23.4835 13.2771 23.0241 13.7509 22.2038C14.4558 20.9818 14.0371 19.4172 12.8151 18.711Z" />
<path d="M30.7211 13.5277L21.7418 8.34307C21.3389 8.11075 20.8992 8.00049 20.466 8.00049C19.5814 8.00049 18.723 8.45857 18.2491 9.27892C17.543 10.5022 17.9617 12.0655 19.185 12.7716L28.1642 17.9563C28.5671 18.1886 29.0069 18.2988 29.44 18.2988C30.3233 18.2988 31.1831 17.8408 31.6569 17.0204C32.3631 15.7971 31.9444 14.2338 30.7211 13.5277Z" />
<path d="M27.8085 18.5717L23.6175 16.1514L19.185 18.7109C17.9617 19.417 17.543 20.9816 18.2491 22.2036C18.723 23.0239 19.5814 23.4833 20.466 23.4833C20.8992 23.4833 21.3389 23.3718 21.7418 23.1394L28.9596 18.9721C28.5566 18.9117 28.1655 18.7778 27.8085 18.5717Z" />
<path d="M4.19033 12.9108L8.38134 15.3312L12.8152 12.7717C14.0372 12.0655 14.4559 10.5023 13.751 9.27897C13.0449 8.05566 11.4803 7.63696 10.2583 8.34311L3.04053 12.5105C3.44348 12.5709 3.83463 12.7061 4.19033 12.9108Z" />
</svg>
