<svg width="24" height="24" viewBox="0 0 24 24" fill="none" xmlns="http://www.w3.org/2000/svg">
<path d="M23.495 6.20498C23.3559 5.70674 23.0907 5.2528 22.7249 4.88703C22.3592 4.52126 21.9052 4.25603 21.407 4.11698C19.537 3.61598 12.011 3.61598 12.011 3.61598C12.011 3.61598 4.50398 3.60598 2.61498 4.11698C2.11674 4.25603 1.6628 4.52126 1.29703 4.88703C0.931256 5.2528 0.666027 5.70674 0.526977 6.20498C0.172497 8.11949 -0.00226272 10.0629 0.00497673 12.01C-0.000894134 13.9497 0.17386 15.8857 0.526977 17.793C0.666027 18.2912 0.931256 18.7452 1.29703 19.1109C1.6628 19.4767 2.11674 19.7419 2.61498 19.881C4.48298 20.383 12.011 20.383 12.011 20.383C12.011 20.383 19.517 20.383 21.407 19.881C21.9052 19.7419 22.3592 19.4767 22.7249 19.1109C23.0907 18.7452 23.3559 18.2912 23.495 17.793C23.8407 15.885 24.0081 13.949 23.995 12.01C24.0095 10.0636 23.8421 8.12018 23.495 6.20498ZM9.60898 15.601V8.40798L15.873 12.01L9.60898 15.601Z" fill="white"/>
</svg>
